<svg width="13" height="11" viewBox="0 0 13 11" fill="none" xmlns="http://www.w3.org/2000/svg">
<path d="M12.0344 0.0958985C11.8636 0.0248514 11.6706 -0.0106074 11.4754 -0.00679505C11.2801 -0.00298265 11.0898 0.0399618 10.9242 0.117578L1.34375 4.61113V0.34375C1.34375 0.25051 1.29436 0.161088 1.20646 0.0951577C1.11855 0.029227 0.99932 -0.0078125 0.875 -0.0078125C0.75068 -0.0078125 0.631451 0.029227 0.543544 0.0951577C0.455636 0.161088 0.40625 0.25051 0.40625 0.34375V10.6562C0.40625 10.7495 0.455636 10.8389 0.543544 10.9048C0.631451 10.9708 0.75068 11.0078 0.875 11.0078C0.99932 11.0078 1.11855 10.9708 1.20646 10.9048C1.29436 10.8389 1.34375 10.7495 1.34375 10.6562V6.38828L10.9242 10.8824C11.0898 10.96 11.2801 11.003 11.4754 11.0068C11.6706 11.0106 11.8636 10.9751 12.0344 10.9041C12.2045 10.8349 12.3464 10.7323 12.4449 10.6073C12.5434 10.4824 12.5948 10.3397 12.5938 10.1945V0.805469C12.5948 0.660302 12.5434 0.517633 12.4449 0.392671C12.3464 0.26771 12.2045 0.16514 12.0344 0.0958985ZM11.6562 10.1945C11.6565 10.2143 11.6492 10.2336 11.6354 10.2504C11.6216 10.2672 11.6017 10.2807 11.5781 10.2895C11.554 10.2993 11.5269 10.3042 11.4995 10.3037C11.472 10.3032 11.4453 10.2973 11.4219 10.2865L1.4125 5.59141C1.39147 5.58193 1.37406 5.56853 1.36198 5.55251C1.3499 5.53649 1.34355 5.5184 1.34355 5.5C1.34355 5.4816 1.3499 5.46351 1.36198 5.44749C1.37406 5.43147 1.39147 5.41807 1.4125 5.40859L11.4219 0.713477C11.4453 0.702327 11.4723 0.696057 11.5 0.695312C11.5273 0.695431 11.5542 0.700668 11.5781 0.710547C11.6017 0.719255 11.6216 0.732781 11.6354 0.749572C11.6492 0.766363 11.6565 0.785737 11.6562 0.805469V10.1945Z" fill="#FCFBFB"/>
</svg>
